<svg xmlns="http://www.w3.org/2000/svg" viewBox="0 0 64 64" fill="none">
  <path d="M 14 12 C 16 13, 22 22, 26 28 C 28 31, 30 33, 32 34" stroke="#1f1f1f" stroke-width="3.4" stroke-linecap="round" stroke-linejoin="round" fill="none"/>
  <path d="M 50 12 C 48 13, 42 22, 38 28 C 36 31, 34 33, 32 34" stroke="#1f1f1f" stroke-width="3.4" stroke-linecap="round" stroke-linejoin="round" fill="none"/>
  <path d="M 32 34 C 32.3 38, 31.8 42, 32 46" stroke="#1f1f1f" stroke-width="3.4" stroke-linecap="round" stroke-linejoin="round" fill="none"/>
  <path d="M 32 46 C 28 49, 24 51, 20 54" stroke="#1f1f1f" stroke-width="2.6" stroke-linecap="round" fill="none"/>
  <path d="M 32 46 C 32.2 49, 31.9 52, 32 56" stroke="#1f1f1f" stroke-width="2.6" stroke-linecap="round" fill="none"/>
  <path d="M 32 46 C 36 49, 40 51, 44 54" stroke="#1f1f1f" stroke-width="2.6" stroke-linecap="round" fill="none"/>
  <circle cx="20" cy="54" r="2.2" fill="#d97757"/>
  <circle cx="32" cy="56" r="2.2" fill="#d97757"/>
  <circle cx="44" cy="54" r="2.2" fill="#d97757"/>
</svg>
